<svg width="20" height="20" viewBox="0 0 20 20" fill="none" xmlns="http://www.w3.org/2000/svg">
<path d="M7.54572 18.1818C7.99759 18.1818 8.3639 17.8155 8.3639 17.3636C8.3639 16.9117 7.99759 16.5454 7.54572 16.5454C7.09385 16.5454 6.72754 16.9117 6.72754 17.3636C6.72754 17.8155 7.09385 18.1818 7.54572 18.1818Z" stroke="#9B9B9B" stroke-width="2" stroke-linecap="round" stroke-linejoin="round"/>
<path d="M16.5457 18.1818C16.9976 18.1818 17.3639 17.8155 17.3639 17.3636C17.3639 16.9117 16.9976 16.5454 16.5457 16.5454C16.0939 16.5454 15.7275 16.9117 15.7275 17.3636C15.7275 17.8155 16.0939 18.1818 16.5457 18.1818Z" stroke="#9B9B9B" stroke-width="2" stroke-linecap="round" stroke-linejoin="round"/>
<path d="M1 1H4.27273L6.46545 11.9555C6.54027 12.3321 6.7452 12.6705 7.04436 12.9113C7.34351 13.1522 7.71784 13.2801 8.10182 13.2727H16.0545C16.4385 13.2801 16.8129 13.1522 17.112 12.9113C17.4112 12.6705 17.6161 12.3321 17.6909 11.9555L19 5.09091H5.09091" stroke="#9B9B9B" stroke-width="2" stroke-linecap="round" stroke-linejoin="round"/>
</svg>
